# xmcd
#
# Track frame offsets:
#	150
#	14067
#	27027
#	40970
#	55645
#	73857
#	94377
#	118505
#	142587
#	158230
#	173037
#	193717
#	226487
#	243412
#	256077
#	274252
#	285457
#
# Disc length: 3974 seconds
#
# Revision: 0
# Processed by: cddbd v1.4PL0 Copyright (c) Steve Scherf et al.
# Submitted via: dBpowerAMP V4.0
#
DISCID=e90f8411
DTITLE=Floyd McDaniel - Let Your Hair Down!
DYEAR=1994
DGENRE=blues
TTITLE0=Raggedy Ride
TTITLE1=Blue Mood
TTITLE2=Mary Jo
TTITLE3=Strange Things Happening
TTITLE4=It Don't Mean A Thing
TTITLE5=I Want A Little Girl
TTITLE6=St. Louis Blues
TTITLE7=God Bless The Child
TTITLE8=Sent For You Yesterday
TTITLE9=R.M. Blues
TTITLE10=Christopher Columbus
TTITLE11=West Side Baby
TTITLE12=Beale Street Baby
TTITLE13=Let Your Hair Down
TTITLE14=Nobody Knows You When You're Down And Out
TTITLE15=Why Life's Got To Be This Way
TTITLE16=Caldonia
EXTD=
EXTT0=
EXTT1=
EXTT2=
EXTT3=
EXTT4=
EXTT5=
EXTT6=
EXTT7=
EXTT8=
EXTT9=
EXTT10=
EXTT11=
EXTT12=
EXTT13=
EXTT14=
EXTT15=
EXTT16=
PLAYORDER=
